<?xml version="1.0" encoding="UTF-8" standalone="no"?>
<!-- Created with Inkscape (http://www.inkscape.org/) -->
<!-- Author: https://blog.icon-icons.com/ -->

<svg
   width="64pt"
   height="64pt"
   viewBox="0 0 22.577778 22.577778"
   version="1.1"
   id="svg831"
   inkscape:version="1.1.1 (3bf5ae0d25, 2021-09-20)"
   sodipodi:docname="Ex.svg"
   inkscape:export-filename="C:\Users\User\Desktop\CARLOS PROJECT\4. APRIL 1\Done\15 - Spinach.png"
   inkscape:export-xdpi="576"
   inkscape:export-ydpi="576"
   xmlns:inkscape="http://www.inkscape.org/namespaces/inkscape"
   xmlns:sodipodi="http://sodipodi.sourceforge.net/DTD/sodipodi-0.dtd"
   xmlns="http://www.w3.org/2000/svg"
   xmlns:svg="http://www.w3.org/2000/svg"
   xmlns:rdf="http://www.w3.org/1999/02/22-rdf-syntax-ns#"
   xmlns:cc="http://creativecommons.org/ns#"
   xmlns:dc="http://purl.org/dc/elements/1.1/">
  <defs
     id="defs825">
    <pattern
       id="EMFhbasepattern"
       patternUnits="userSpaceOnUse"
       width="6"
       height="6"
       x="0"
       y="0" />
    <pattern
       id="EMFhbasepattern-9"
       patternUnits="userSpaceOnUse"
       width="6"
       height="6"
       x="0"
       y="0" />
    <pattern
       id="EMFhbasepattern-0"
       patternUnits="userSpaceOnUse"
       width="6"
       height="6"
       x="0"
       y="0" />
    <pattern
       id="EMFhbasepattern-7"
       patternUnits="userSpaceOnUse"
       width="6"
       height="6"
       x="0"
       y="0" />
    <pattern
       id="EMFhbasepattern-2"
       patternUnits="userSpaceOnUse"
       width="6"
       height="6"
       x="0"
       y="0" />
    <pattern
       id="EMFhbasepattern-98"
       patternUnits="userSpaceOnUse"
       width="6"
       height="6"
       x="0"
       y="0" />
    <pattern
       id="EMFhbasepattern-6"
       patternUnits="userSpaceOnUse"
       width="6"
       height="6"
       x="0"
       y="0" />
    <pattern
       id="EMFhbasepattern-01"
       patternUnits="userSpaceOnUse"
       width="6"
       height="6"
       x="0"
       y="0" />
    <pattern
       id="EMFhbasepattern-07"
       patternUnits="userSpaceOnUse"
       width="6"
       height="6"
       x="0"
       y="0" />
    <pattern
       id="EMFhbasepattern-8"
       patternUnits="userSpaceOnUse"
       width="6"
       height="6"
       x="0"
       y="0" />
    <pattern
       id="EMFhbasepattern-4"
       patternUnits="userSpaceOnUse"
       width="6"
       height="6"
       x="0"
       y="0" />
    <pattern
       id="EMFhbasepattern-40"
       patternUnits="userSpaceOnUse"
       width="6"
       height="6"
       x="0"
       y="0" />
    <pattern
       id="EMFhbasepattern-08"
       patternUnits="userSpaceOnUse"
       width="6"
       height="6"
       x="0"
       y="0" />
    <pattern
       id="EMFhbasepattern-04"
       patternUnits="userSpaceOnUse"
       width="6"
       height="6"
       x="0"
       y="0" />
    <pattern
       id="EMFhbasepattern-014"
       patternUnits="userSpaceOnUse"
       width="6"
       height="6"
       x="0"
       y="0" />
    <pattern
       id="EMFhbasepattern-27"
       patternUnits="userSpaceOnUse"
       width="6"
       height="6"
       x="0"
       y="0" />
    <pattern
       id="EMFhbasepattern-09"
       patternUnits="userSpaceOnUse"
       width="6"
       height="6"
       x="0"
       y="0" />
    <pattern
       id="EMFhbasepattern-5"
       patternUnits="userSpaceOnUse"
       width="6"
       height="6"
       x="0"
       y="0" />
    <pattern
       id="EMFhbasepattern-018"
       patternUnits="userSpaceOnUse"
       width="6"
       height="6"
       x="0"
       y="0" />
  </defs>
  <sodipodi:namedview
     id="base"
     pagecolor="#ffffff"
     bordercolor="#666666"
     borderopacity="1.0"
     inkscape:pageopacity="0.0"
     inkscape:pageshadow="2"
     inkscape:zoom="6.4882571"
     inkscape:cx="42.692513"
     inkscape:cy="42.61545"
     inkscape:document-units="pt"
     inkscape:current-layer="layer1"
     showgrid="false"
     units="pt"
     inkscape:window-width="1920"
     inkscape:window-height="1001"
     inkscape:window-x="-9"
     inkscape:window-y="-9"
     inkscape:window-maximized="1"
     inkscape:pagecheckerboard="true"
     inkscape:showpageshadow="false"
     inkscape:object-paths="true"
     inkscape:snap-intersection-paths="true"
     inkscape:snap-smooth-nodes="true"
     inkscape:snap-midpoints="true"
     showguides="true"
     inkscape:snap-bbox="true"
     inkscape:bbox-nodes="true"
     inkscape:snap-nodes="false"
     inkscape:snap-global="true"
     inkscape:lockguides="true">
    <inkscape:grid
       type="xygrid"
       id="grid1378" />
    <sodipodi:guide
       position="0.97013831,21.607643"
       orientation="78.000048,0"
       id="guide1380"
       inkscape:locked="true" />
    <sodipodi:guide
       position="0.97013831,0.97013129"
       orientation="0,78.000005"
       id="guide1382"
       inkscape:locked="true" />
    <sodipodi:guide
       position="21.607639,0.97013129"
       orientation="-78.000048,0"
       id="guide1384"
       inkscape:locked="true" />
    <sodipodi:guide
       position="21.607639,21.607643"
       orientation="0,-78.000005"
       id="guide1386"
       inkscape:locked="true" />
  </sodipodi:namedview>
  <metadata
     id="metadata828">
    <rdf:RDF>
      <cc:Work
         rdf:about="">
        <dc:format>image/svg+xml</dc:format>
        <dc:type
           rdf:resource="http://purl.org/dc/dcmitype/StillImage" />
      </cc:Work>
    </rdf:RDF>
  </metadata>
  <g
     inkscape:label="Icon"
     inkscape:groupmode="layer"
     id="layer1"
     transform="translate(0,-274.42223)">
    <g
       id="g45518"
       style="display:inline;stroke-width:0.776562"
       transform="matrix(1.2877269,0,0,1.2877269,78.944847,-160.7922)">
      <g
         id="g28752"
         style="display:inline;stroke-width:0.776562">
        <g
           id="g26752"
           style="stroke-width:0.776562">
          <path
             style="color:#000000;fill:#50b86b;stroke-width:0.776562;stroke-linecap:round;stroke-linejoin:round;-inkscape-stroke:none"
             d="m -48.91381,341.30272 c -0.05072,0.0299 -0.09,0.0759 -0.111623,0.13074 l -3.984942,10.58461 c -0.05818,0.15103 0.03164,0.31843 0.189653,0.35346 1.703769,0.38055 3.079121,-0.41001 4.379667,-1.36185 1.300547,-0.95183 2.191437,-1.92404 2.191437,-1.92404 0.135664,-0.16 0.08687,-0.34824 -0.121175,-0.3751 l -0.358635,-0.045 c 0.725676,-0.84898 1.167233,-1.74551 1.643857,-2.76513 0.08891,-0.20168 0.02366,-0.33544 -0.190026,-0.28144 l -0.660212,-0.005 c 0.35517,-0.81722 0.489675,-1.47882 0.586556,-2.37042 0.03228,-0.28493 -0.03436,-0.30759 -0.19173,-0.22038 l -0.690831,0.1909 c 0.0472,-0.81259 -0.0995,-1.41055 -0.369677,-2.19097 -0.06793,-0.23795 -0.04491,-0.26824 -0.167815,-0.24333 0,0 -1.241601,-0.0103 -2.144504,0.52288 z"
             id="path105695"
             sodipodi:nodetypes="scccscccccccccccs" />
          <path
             id="path111440"
             style="fill:#349951;fill-opacity:1;stroke-width:0.776562;stroke-linecap:round;stroke-linejoin:round"
             d="m -50.364886,344.86736 -2.844271,7.29103 a 0.26461046,0.26461046 0 0 0 0.189653,0.35346 c 0.337834,0.0755 0.676238,0.0991 1.012341,0.0837 1.040493,-1.11394 1.485112,-2.66975 1.700671,-3.99201 0.280445,-1.72025 0.165883,-3.21272 0.165883,-3.21272 a 0.63980022,0.63980022 0 0 0 0,-5.3e-4 0.63980022,0.63980022 0 0 0 0,-5.3e-4 0.63980022,0.63980022 0 0 0 0,-5.3e-4 0.63980022,0.63980022 0 0 0 0,-5.3e-4 c -0.01535,-0.1921 -0.09781,-0.37608 -0.224277,-0.52141 z" />
          <path
             id="path107401"
             style="fill:#349951;fill-opacity:1;stroke-width:0.776562;stroke-linecap:round;stroke-linejoin:round"
             d="m -52.894964,351.35327 c 0.162046,0.4935 0.816062,0.76942 1.277443,0.51779 2.716305,-1.48779 4.241141,-4.87201 4.244184,-4.87877 0.138604,-0.28828 0.106172,-0.6511 -0.08165,-0.91002 -0.06602,-0.091 -0.199853,-0.0677 -0.295074,-0.12712 0.122563,-0.33502 0.276656,-0.67039 0.36122,-0.98599 0.220853,-0.82423 0.33383,-1.54512 0.33383,-1.54512 7.05e-4,-10e-4 0.0014,-0.003 0.0021,-0.004 0.06613,-0.43556 -0.241887,-0.89518 -0.482627,-0.95386 -0.240739,-0.0587 -0.29078,-0.0213 -0.343713,-0.0244 0.05321,-0.52463 -0.01277,-1.09028 -0.07648,-1.5618 -0.312923,0.1044 -0.650187,0.2409 -0.95808,0.42272 z"
             sodipodi:nodetypes="cccscsccccccc" />
          <path
             style="color:#000000;fill:#50b86b;stroke-width:0.776562;stroke-linecap:round;stroke-linejoin:round;-inkscape-stroke:none"
             d="m -50.802196,338.88611 c 0,0 -0.435323,0.16779 -0.957756,0.51028 -0.350258,0.22961 -0.843927,0.51797 -1.131693,0.87333 l -0.174476,-0.59018 c -0.02545,-0.095 -0.101474,-0.16802 -0.197402,-0.18965 -0.09625,-0.0214 -0.126276,0.0242 -0.189773,0.0996 0,0 -0.627298,0.58286 -1.06018,1.40064 -0.02936,0.0559 -0.03778,0.12037 -0.02376,0.1819 l 2.234488,9.97459 c 0.03887,0.17133 0.230841,0.25791 0.38499,0.17363 2.438958,-1.33589 3.978053,-4.59972 3.978053,-4.59972 0.0909,-0.18958 -0.06494,-0.40435 -0.27337,-0.37672 l -0.358117,0.0496 c 0.481044,-1.00791 0.701813,-1.9587 0.897621,-3.067 0.04025,-0.27896 -0.226149,-0.37637 -0.390676,-0.27184 l -0.484206,0.27079 c 0.131095,-0.88094 0.02562,-1.43198 -0.111529,-2.31792 -0.04103,-0.28046 -0.293114,-0.29678 -0.447519,-0.14056 l -0.431691,0.42584 c -0.07155,-0.45135 -0.258581,-0.99169 -0.447,-1.36546 -0.281199,-0.55782 -0.580028,-0.59337 -0.562627,-0.9588 -0.07408,-0.12559 -0.200815,-0.10165 -0.253373,-0.0823 z"
             id="path104664"
             sodipodi:nodetypes="cscccccccccccccccccsccc" />
          <path
             id="path107275"
             style="fill:#349951;fill-opacity:1;stroke-width:0.776562;stroke-linecap:round;stroke-linejoin:round"
             d="m -54.513471,340.99007 c 0.132292,0.0744 2.595718,10.33012 2.595718,10.33012 0.400968,-0.21962 0.777063,-0.49194 1.126546,-0.79271 0.235124,-0.64665 0.384712,-1.31043 0.484724,-1.92392 0.280445,-1.72025 0.165884,-3.21272 0.165884,-3.21272 v -5.3e-4 -5.3e-4 -5.3e-4 -5.3e-4 c -0.02577,-0.32231 -0.239927,-0.62258 -0.438293,-0.71132 -0.198366,-0.0887 -0.298998,-2.4e-4 -0.407702,-0.005 -0.06101,-0.34839 -0.09539,-0.71411 -0.179316,-1.02733 -0.221014,-0.82483 -0.482658,-1.50585 -0.482658,-1.50585 -6.98e-4,-6.7e-4 -0.0014,-0.001 -0.0021,-0.002 -0.292837,-0.52565 -0.783074,-0.95663 -1.169989,-0.36742 -0.287357,-0.61576 -0.698633,-1.12708 -1.126738,-1.58031 -0.209336,0.28441 -0.406348,0.48861 -0.566076,0.80058 z"
             sodipodi:nodetypes="cccscccccccsccccc" />
          <path
             style="color:#000000;fill:#50b86b;stroke-width:0.776562;stroke-linecap:round;stroke-linejoin:round;-inkscape-stroke:none"
             d="m -57.254094,340.12486 c -0.452887,0.66733 -0.92514,1.29283 -1.062243,2.10742 l -0.443383,-0.44338 c -0.158715,-0.17078 -0.409208,-0.0586 -0.447519,0.14056 -0.105798,0.86669 -0.153933,1.86658 0.0044,2.71548 l -0.517737,-0.31704 c -0.193324,-0.10851 -0.303607,-0.0448 -0.267896,0.17398 0,0 0.03917,0.67324 0.250232,1.46092 0.144791,0.54036 0.349427,1.18853 0.606459,1.65078 l -0.409185,0.0381 c -0.209707,-0.0298 -0.268312,0.0697 -0.176045,0.26031 0,0 0.576834,1.27381 1.658064,2.57806 1.081231,1.30425 2.474391,2.49777 4.322654,2.3658 0.101816,-0.0303 0.17617,-0.0709 0.261994,-0.1116 1.576631,-0.8712 2.170965,-2.58592 2.437477,-4.22072 0.266512,-1.63478 0.117205,-2.9614 0.181514,-3.00818 -0.01737,-0.2244 -0.25545,-0.25251 -0.402427,-0.12909 l -0.28422,0.22066 c -0.08817,-1.11335 -0.325906,-2.05884 -0.70977,-3.11692 -0.112241,-0.28012 -0.342297,-0.27849 -0.451521,-0.0685 l -0.288515,0.53338 c -0.328647,-0.82693 -0.75004,-1.45059 -1.308996,-2.15048 -0.207226,-0.21188 -0.321845,-0.12122 -0.382882,0.0603 l -0.227093,0.68423 c -0.55447,-0.62392 -1.056685,-1.08917 -1.814084,-1.45957 -0.176154,-0.0819 -0.442913,-0.0854 -0.529251,0.0355 z"
             id="path103054"
             sodipodi:nodetypes="cccccccscccsccscccccccccccc" />
        </g>
      </g>
      <path
         id="path35919"
         style="color:#000000;fill:#000000;stroke-width:2.93504;stroke-linecap:round;stroke-linejoin:round;-inkscape-stroke:none"
         d="m -176.20705,258.91221 c 2.75509,-3.20599 4.48897,-6.45577 6.29101,-10.3125 0.2256,-0.50587 -0.003,-1.09875 -0.50976,-1.32227 -0.3203,-0.13754 -0.62234,-0.0447 -0.97461,0.0294 l -1.70508,0.43164 c 1.33513,-3.09578 1.90805,-6.01127 2.28125,-9.3789 0.0917,-1.16121 -0.90686,-1.25548 -1.60934,-0.88474 l -1.94532,1.12305 c 0.15919,-3.27471 -0.48187,-6.0924 -1.58398,-9.17774 -0.22848,-0.68422 -0.64289,-0.69861 -1.20902,-0.5976 -0.65204,0.10872 -3.58661,0.6265 -6.35546,1.92187 -0.0562,-0.42842 -0.11746,-0.86096 -0.18555,-1.30078 -0.0669,-0.3663 -0.33185,-0.66507 -0.6875,-0.77539 -0.46354,-0.13705 -0.79423,0.0384 -1.00391,0.24414 l -1.67578,1.67773 c -0.68934,-3.19973 -2.03471,-5.7579 -3.9043,-8.44726 -0.3024,-0.38371 -0.57064,-0.48639 -0.8789,-0.42969 l 2e-5,-2.8e-4 c -0.10275,0.0189 -0.2098,0.0556 -0.32422,0.10547 -2.76898,1.39072 -5.65512,3.01265 -7.60547,5.36914 l -0.61719,-2.29102 c -0.35088,-1.08208 -1.33619,-0.85105 -1.83984,-0.26171 -0.10334,0.1235 -1.62407,1.96361 -3.03516,4.31054 -0.27556,-0.39254 -0.55852,-0.47169 -1.03906,-0.40234 -0.36431,0.0795 -0.65416,0.35501 -0.75195,0.71484 l -0.61524,2.29297 c -1.75924,-2.17321 -4.5805,-4.13117 -7.45703,-5.28125 -0.6096,-0.28123 -1.04724,-0.24868 -1.35547,0.23633 -1.70284,2.62642 -3.38588,5.40373 -3.89648,8.45508 l -1.68359,-1.67969 c -0.26344,-0.26131 -0.64989,-0.3553 -1.00391,-0.24414 -0.35565,0.11032 -0.62055,0.40909 -0.6875,0.77539 -0.40504,3.2427 -0.81206,6.46528 -0.2168,9.64844 l -1.83398,-1.02539 c -0.73067,-0.41012 -1.61152,0.20624 -1.47656,1.0332 0.88538,4.00394 1.43317,7.98369 3.39257,11.58398 l -1.34765,-0.1875 c -0.79259,-0.1127 -1.38975,0.70517 -1.04102,1.42579 0,0 2.42323,5.03539 6.50977,9.96484 4.00472,4.83076 9.69363,9.7226 16.49414,9.44726 1.19199,1.96633 2.49713,3.94 3.91797,6.11524 0.30319,0.46289 0.92466,0.59156 1.38672,0.28711 0.46477,-0.30264 0.59447,-0.92571 0.28906,-1.38867 -1.30732,-1.80434 -2.57396,-3.76652 -3.72266,-5.74219 0.54197,-0.32833 1.057,-0.68589 1.53906,-1.07617 9.22577,1.44217 18.82413,-5.65596 25.67969,-13.17188 0.76303,-0.79847 0.11853,-1.56809 -0.71875,-1.64844 -0.42669,-0.0629 -0.8553,-0.11212 -1.28322,-0.16591 z m -15.94334,-34.84971 c 1.50802,2.45136 3.52239,5.70319 3.12305,8.73828 -0.0865,0.54654 0.2872,1.05947 0.83398,1.14453 0.46739,0.0469 0.75826,-0.18792 0.98828,-0.39843 l 1.73438,-1.73438 c 0.22405,2.6736 0.70639,6.29069 -0.67188,8.93164 -0.26728,0.48376 -0.0914,1.09259 0.39258,1.35938 0.55483,0.23433 0.94749,0.0101 1.24023,-0.14844 l 1.89649,-1.0625 c -0.74713,3.27362 -1.70175,7.73065 -3.86719,10.37109 -0.40794,0.37617 -0.43165,1.01256 -0.0527,1.41797 0.40329,0.3655 0.67927,0.32387 1.13672,0.27344 l 1.36523,-0.18555 c -1.10942,2.0917 -4.7165,8.60107 -10.30078,12.89453 2.11739,-6.00686 2.70572,-12.07805 2.41015,-18.58594 -0.10082,-1.00823 -1.05382,-1.12461 -1.60937,-0.70898 l -1.0918,0.84766 c -0.17312,-2.25137 -0.56097,-4.30179 -1.09961,-6.33008 2.20321,-0.96205 4.0778,-1.26378 6.67969,-1.41992 0.54956,-0.0335 0.96863,-0.50499 0.9375,-1.05469 -0.0335,-0.54956 -0.50499,-0.96863 -1.05469,-0.9375 -2.61376,0.15671 -4.76538,0.49762 -7.12109,1.48047 -0.028,-0.0898 -0.0535,-0.17957 -0.082,-0.26953 0.8652,-1.9526 1.81153,-3.86965 2.84766,-5.75 0.26728,-0.48376 0.0914,-1.09259 -0.39258,-1.35938 -0.58604,-0.24014 -1.0909,-0.0768 -1.35742,0.39063 -0.71978,1.30622 -1.39481,2.62973 -2.03321,3.96875 -0.0563,-0.15699 -0.10844,-0.31034 -0.16601,-0.46875 -0.13846,-0.35669 -0.4683,-0.60312 -0.84961,-0.63477 -0.38231,-0.0326 -0.7496,0.1563 -0.94532,0.48633 l -1.07031,1.79297 c -0.95765,-2.41066 -2.16588,-4.4302 -3.63672,-6.44141 0.7052,-1.2522 1.50218,-2.42748 2.14649,-3.30859 l 0.68554,2.54687 c 0.14208,0.53514 0.69194,0.85297 1.22657,0.70899 0.74056,-0.26732 0.79103,-0.74358 1.01758,-1.22657 1.95535,-2.66619 4.41765,-4.17423 6.74023,-5.32812 z m -23.20899,4.30859 c 2.62874,1.49913 5.93045,3.23697 7.09376,6.07032 0.19832,0.51575 0.77735,0.77292 1.29296,0.57421 0.51126,-0.22612 0.58748,-0.61819 0.69336,-1.0039 l 0.58985,-2.20703 c 1.52982,2.20418 3.76354,5.09374 3.89062,8.06836 0.01,0.5531 0.46646,0.99331 1.01953,0.98242 0.55432,-0.023 0.86967,-0.53631 1.07618,-0.88672 l 1.03515,-1.73437 c 0.87311,3.17444 2.58033,6.96534 1.91797,10.60742 -0.25188,1.37243 0.91444,1.81079 1.48438,1.40429 l 1.24023,-0.96093 c -0.0538,7.57499 -1.61193,19.11884 -8.39649,23.9082 -0.64677,-1.19372 -1.24684,-2.37837 -1.76757,-3.51953 0.67568,-5.20821 1.63518,-9.66979 5.875,-14.05469 0.38717,-0.39688 0.37755,-1.033 -0.0215,-1.41797 -0.44834,-0.344 -1.03058,-0.35981 -1.41797,0.0293 -3.68607,3.81221 -5.13934,7.83122 -5.92773,12.00391 -1.04112,-2.52917 -1.96399,-5.07038 -2.76367,-7.62696 0.2563,-1.8533 1.18487,-4.27835 2.50586,-6.40625 1.40905,-2.26976 3.27553,-4.19907 5.0039,-4.95312 0.50544,-0.2205 0.73699,-0.80854 0.51758,-1.31446 -0.36614,-0.60918 -0.8103,-0.69116 -1.31445,-0.51562 -2.34628,1.02361 -4.35823,3.23493 -5.90625,5.72851 -0.75194,1.21126 -1.39042,2.48957 -1.875,3.75586 -0.7229,-2.72091 -1.31043,-5.56637 -1.72852,-8.27343 1.85054,-3.13219 3.50832,-4.56578 6.29883,-6.40821 0.45724,-0.30482 0.58283,-0.92148 0.28125,-1.38086 -0.30327,-0.4641 -0.92622,-0.59289 -1.38867,-0.28711 -2.26718,1.49691 -3.99385,2.91312 -5.5918,5.06836 -0.25479,-2.2603 -0.40745,-4.53229 -0.45312,-6.81836 -0.01,-0.5531 -0.46604,-0.99291 -1.01758,-0.98046 -0.55154,0.0125 -0.98748,0.46748 -0.97656,1.01757 0.083,4.15198 0.51044,8.25814 1.25195,12.32227 -1.56631,-1.14438 -2.73947,-2.59958 -4.13867,-4.71875 -0.30256,-0.46356 -0.92415,-0.59313 -1.38672,-0.28906 -0.46207,0.30518 -0.58816,0.92775 -0.28125,1.38867 1.87842,2.84498 3.61892,4.8435 6.3457,6.3125 0.89624,4.12286 1.92686,7.56592 3.29688,11.3457 -2.6314,-1.47836 -5.37082,-3.79312 -7.45703,-8.3789 -0.26661,-0.59839 -0.8046,-0.68673 -1.32227,-0.50196 -0.50409,0.22947 -0.72565,0.82497 -0.49414,1.32813 2.80859,6.17364 6.98914,8.78379 10.32812,10.3164 0.9821,2.88965 2.14897,5.34964 3.48047,7.72657 -5.36388,-0.31248 -10.20018,-4.38612 -13.78711,-8.71289 -3.20301,-3.86366 -4.44415,-6.5335 -5.11523,-7.83204 l 1.20312,0.16993 c 0.50075,0.087 1.01612,-0.0739 1.21875,-0.26563 0.37736,-0.40701 0.27297,-0.92629 -0.0586,-1.41797 -2.2631,-3.24285 -3.21945,-6.92544 -3.86133,-10.37109 l 2.16211,1.21094 c 0.48119,0.26885 1.0892,0.0976 1.35938,-0.38282 0.22137,-0.57855 -0.03,-0.8604 -0.16211,-1.29296 -0.91468,-2.90876 -0.87527,-6.04401 -0.51758,-8.62891 l 1.86719,1.86719 c 0.39095,0.39303 1.02702,0.39303 1.41797,0 0.35451,-0.43968 0.22415,-0.76462 0.24414,-1.19532 0.15801,-3.26942 1.53778,-5.95458 3.13671,-8.46875 z m 37.81055,2.5586 c 0.78799,2.84249 1.82137,6.45668 0.76759,9.19531 -0.2117,0.40808 -0.13831,0.65936 0,1.01174 0.27572,0.47824 0.88681,0.64259 1.36523,0.36719 l 2.34961,-1.35547 c -0.58857,2.78022 -1.09431,6.26926 -2.94726,8.40625 -0.33325,0.29803 -0.38713,0.67606 -0.33202,1.03322 0.13532,0.53372 0.67663,0.85764 1.21093,0.72461 l 2.47852,-0.62891 c -1.78428,2.73229 -2.98858,6.95097 -5.93587,8.72983 -0.83258,0.44355 -1.04217,0.73623 -1.0838,1.07301 -0.0678,0.54861 0.3224,1.04814 0.87109,1.11523 l 1.76758,0.22266 c -5.58532,5.4242 -13.70776,11.71007 -21.00391,11.29101 0.79671,-0.91127 1.49331,-1.91081 2.09766,-2.97265 9.86629,-5.33076 14.75391,-17.21485 14.75391,-17.21485 0.35288,-0.71875 -0.23988,-1.5401 -1.03321,-1.43164 l -1.35351,0.18946 c 0.72551,-1.51856 1.28926,-3.0044 1.75781,-4.50586 1.01613,0.0801 2.06462,0.24936 3.25,0.49219 0.54223,0.11154 1.0719,-0.23865 1.18164,-0.78126 0.11145,-0.54285 -0.23982,-1.07282 -0.7832,-1.18164 -1.08595,-0.22235 -2.09532,-0.39026 -3.09375,-0.48828 0.42228,-1.64134 0.76267,-3.32649 1.08008,-5.12304 0.21762,-1.20281 -0.80488,-1.40923 -1.47657,-1.03321 l -1.82422,1.01953 c 0.31684,-2.15532 0.34015,-4.16109 0.17969,-6.21484 1.83567,-0.87837 3.78388,-1.50271 5.75598,-1.93959 z"
         transform="matrix(0.26458334,0,0,0.26458334,0,280.06666)"
         sodipodi:nodetypes="ccccccccccccccccccccccccccccccccccccccscccccccccccccccccccccccccccccccccccccccccccccccsccccccccccccccccccssccscccccccsccccccccccccsccccccccccccssccccccccccsccccccccccccccccc" />
    </g>
  </g>
</svg>
