<svg id="Layer_1" data-name="Layer 1" xmlns="http://www.w3.org/2000/svg" viewBox="0 0 200 200"><defs><style>.cls-1{fill:#231f20;}</style></defs><title>Wondicon - UI (Free)</title><path class="cls-1" d="M150,130a5,5,0,0,1,0-10,17.85,17.85,0,0,0,0-35.69h-.39a4.89,4.89,0,0,1-3.87-1.7,5,5,0,0,1-1.18-4,39.69,39.69,0,0,0,.44-5.87,38.39,38.39,0,0,0-76.47-4.8,5,5,0,0,1-5.84,4.3A24.09,24.09,0,1,0,58.41,120a5,5,0,1,1,0,10,34.09,34.09,0,1,1,1.05-68.17A48.39,48.39,0,0,1,155,72.71c0,.68,0,1.37,0,2.05A27.85,27.85,0,0,1,150,130Z"/><path class="cls-1" d="M135.22,124.51a5,5,0,0,1-3.54-1.47l-16-16-16,16A5,5,0,0,1,92.67,116l19.51-19.51a5,5,0,0,1,7.07,0L138.75,116a5,5,0,0,1-3.53,8.54Z"/><path class="cls-1" d="M115.71,175.68a5,5,0,0,1-5-5V100a5,5,0,0,1,10,0v70.68A5,5,0,0,1,115.71,175.68Z"/><path class="cls-1" d="M94.21,154.89a5,5,0,0,1-3.54-1.47l-10-9.95-10,9.95a5,5,0,0,1-7.07-7.07l13.5-13.49a5,5,0,0,1,7.07,0l13.49,13.49a5,5,0,0,1-3.53,8.54Z"/><path class="cls-1" d="M80.71,176a5,5,0,0,1-5-5V136.4a5,5,0,0,1,10,0V171A5,5,0,0,1,80.71,176Z"/></svg>